<svg id="wave" style="transform:rotate(0deg); transition: 0.3s" viewBox="0 0 1440 490" version="1.1" xmlns="http://www.w3.org/2000/svg"><defs><linearGradient id="sw-gradient-0" x1="0" x2="0" y1="1" y2="0"><stop stop-color="rgba(186, 242, 187, 0.56)" offset="0%"></stop><stop stop-color="rgba(186, 242, 216, 0.54)" offset="100%"></stop></linearGradient></defs><path style="transform:translate(0, 0px); opacity:1" fill="url(#sw-gradient-0)" d="M0,392L40,359.3C80,327,160,261,240,228.7C320,196,400,196,480,220.5C560,245,640,294,720,334.8C800,376,880,408,960,351.2C1040,294,1120,147,1200,138.8C1280,131,1360,261,1440,326.7C1520,392,1600,392,1680,375.7C1760,359,1840,327,1920,277.7C2000,229,2080,163,2160,179.7C2240,196,2320,294,2400,351.2C2480,408,2560,425,2640,432.8C2720,441,2800,441,2880,375.7C2960,310,3040,180,3120,114.3C3200,49,3280,49,3360,89.8C3440,131,3520,212,3600,261.3C3680,310,3760,327,3840,326.7C3920,327,4000,310,4080,294C4160,278,4240,261,4320,253.2C4400,245,4480,245,4560,204.2C4640,163,4720,82,4800,81.7C4880,82,4960,163,5040,187.8C5120,212,5200,180,5280,212.3C5360,245,5440,343,5520,367.5C5600,392,5680,343,5720,318.5L5760,294L5760,490L5720,490C5680,490,5600,490,5520,490C5440,490,5360,490,5280,490C5200,490,5120,490,5040,490C4960,490,4880,490,4800,490C4720,490,4640,490,4560,490C4480,490,4400,490,4320,490C4240,490,4160,490,4080,490C4000,490,3920,490,3840,490C3760,490,3680,490,3600,490C3520,490,3440,490,3360,490C3280,490,3200,490,3120,490C3040,490,2960,490,2880,490C2800,490,2720,490,2640,490C2560,490,2480,490,2400,490C2320,490,2240,490,2160,490C2080,490,2000,490,1920,490C1840,490,1760,490,1680,490C1600,490,1520,490,1440,490C1360,490,1280,490,1200,490C1120,490,1040,490,960,490C880,490,800,490,720,490C640,490,560,490,480,490C400,490,320,490,240,490C160,490,80,490,40,490L0,490Z"></path><defs><linearGradient id="sw-gradient-1" x1="0" x2="0" y1="1" y2="0"><stop stop-color="rgba(186, 215, 242, 0.61)" offset="0%"></stop><stop stop-color="rgba(186, 215, 242, 0.35)" offset="100%"></stop></linearGradient></defs><path style="transform:translate(0, 50px); opacity:0.9" fill="url(#sw-gradient-1)" d="M0,49L40,106.2C80,163,160,278,240,294C320,310,400,229,480,187.8C560,147,640,147,720,163.3C800,180,880,212,960,220.5C1040,229,1120,212,1200,179.7C1280,147,1360,98,1440,81.7C1520,65,1600,82,1680,81.7C1760,82,1840,65,1920,89.8C2000,114,2080,180,2160,196C2240,212,2320,180,2400,212.3C2480,245,2560,343,2640,359.3C2720,376,2800,310,2880,261.3C2960,212,3040,180,3120,147C3200,114,3280,82,3360,81.7C3440,82,3520,114,3600,106.2C3680,98,3760,49,3840,89.8C3920,131,4000,261,4080,326.7C4160,392,4240,392,4320,351.2C4400,310,4480,229,4560,228.7C4640,229,4720,310,4800,310.3C4880,310,4960,229,5040,163.3C5120,98,5200,49,5280,57.2C5360,65,5440,131,5520,196C5600,261,5680,327,5720,359.3L5760,392L5760,490L5720,490C5680,490,5600,490,5520,490C5440,490,5360,490,5280,490C5200,490,5120,490,5040,490C4960,490,4880,490,4800,490C4720,490,4640,490,4560,490C4480,490,4400,490,4320,490C4240,490,4160,490,4080,490C4000,490,3920,490,3840,490C3760,490,3680,490,3600,490C3520,490,3440,490,3360,490C3280,490,3200,490,3120,490C3040,490,2960,490,2880,490C2800,490,2720,490,2640,490C2560,490,2480,490,2400,490C2320,490,2240,490,2160,490C2080,490,2000,490,1920,490C1840,490,1760,490,1680,490C1600,490,1520,490,1440,490C1360,490,1280,490,1200,490C1120,490,1040,490,960,490C880,490,800,490,720,490C640,490,560,490,480,490C400,490,320,490,240,490C160,490,80,490,40,490L0,490Z"></path><defs><linearGradient id="sw-gradient-2" x1="0" x2="0" y1="1" y2="0"><stop stop-color="rgba(242, 186, 201, 0.54)" offset="0%"></stop><stop stop-color="rgba(242, 186, 201, 0.53)" offset="100%"></stop></linearGradient></defs><path style="transform:translate(0, 100px); opacity:0.8" fill="url(#sw-gradient-2)" d="M0,441L40,424.7C80,408,160,376,240,367.5C320,359,400,376,480,392C560,408,640,425,720,367.5C800,310,880,180,960,163.3C1040,147,1120,245,1200,285.8C1280,327,1360,310,1440,294C1520,278,1600,261,1680,228.7C1760,196,1840,147,1920,138.8C2000,131,2080,163,2160,220.5C2240,278,2320,359,2400,359.3C2480,359,2560,278,2640,236.8C2720,196,2800,196,2880,204.2C2960,212,3040,229,3120,245C3200,261,3280,278,3360,277.7C3440,278,3520,261,3600,261.3C3680,261,3760,278,3840,310.3C3920,343,4000,392,4080,400.2C4160,408,4240,376,4320,302.2C4400,229,4480,114,4560,73.5C4640,33,4720,65,4800,106.2C4880,147,4960,196,5040,204.2C5120,212,5200,180,5280,187.8C5360,196,5440,245,5520,269.5C5600,294,5680,294,5720,294L5760,294L5760,490L5720,490C5680,490,5600,490,5520,490C5440,490,5360,490,5280,490C5200,490,5120,490,5040,490C4960,490,4880,490,4800,490C4720,490,4640,490,4560,490C4480,490,4400,490,4320,490C4240,490,4160,490,4080,490C4000,490,3920,490,3840,490C3760,490,3680,490,3600,490C3520,490,3440,490,3360,490C3280,490,3200,490,3120,490C3040,490,2960,490,2880,490C2800,490,2720,490,2640,490C2560,490,2480,490,2400,490C2320,490,2240,490,2160,490C2080,490,2000,490,1920,490C1840,490,1760,490,1680,490C1600,490,1520,490,1440,490C1360,490,1280,490,1200,490C1120,490,1040,490,960,490C880,490,800,490,720,490C640,490,560,490,480,490C400,490,320,490,240,490C160,490,80,490,40,490L0,490Z"></path><defs><linearGradient id="sw-gradient-3" x1="0" x2="0" y1="1" y2="0"><stop stop-color="rgba(247, 175, 157, 0.51)" offset="0%"></stop><stop stop-color="rgba(255, 255, 255, 0.58)" offset="100%"></stop></linearGradient></defs><path style="transform:translate(0, 150px); opacity:0.7" fill="url(#sw-gradient-3)" d="M0,196L40,228.7C80,261,160,327,240,326.7C320,327,400,261,480,253.2C560,245,640,294,720,269.5C800,245,880,147,960,114.3C1040,82,1120,114,1200,138.8C1280,163,1360,180,1440,179.7C1520,180,1600,163,1680,204.2C1760,245,1840,343,1920,318.5C2000,294,2080,147,2160,73.5C2240,0,2320,0,2400,49C2480,98,2560,196,2640,228.7C2720,261,2800,229,2880,245C2960,261,3040,327,3120,318.5C3200,310,3280,229,3360,171.5C3440,114,3520,82,3600,122.5C3680,163,3760,278,3840,334.8C3920,392,4000,392,4080,367.5C4160,343,4240,294,4320,253.2C4400,212,4480,180,4560,204.2C4640,229,4720,310,4800,334.8C4880,359,4960,327,5040,285.8C5120,245,5200,196,5280,196C5360,196,5440,245,5520,294C5600,343,5680,392,5720,416.5L5760,441L5760,490L5720,490C5680,490,5600,490,5520,490C5440,490,5360,490,5280,490C5200,490,5120,490,5040,490C4960,490,4880,490,4800,490C4720,490,4640,490,4560,490C4480,490,4400,490,4320,490C4240,490,4160,490,4080,490C4000,490,3920,490,3840,490C3760,490,3680,490,3600,490C3520,490,3440,490,3360,490C3280,490,3200,490,3120,490C3040,490,2960,490,2880,490C2800,490,2720,490,2640,490C2560,490,2480,490,2400,490C2320,490,2240,490,2160,490C2080,490,2000,490,1920,490C1840,490,1760,490,1680,490C1600,490,1520,490,1440,490C1360,490,1280,490,1200,490C1120,490,1040,490,960,490C880,490,800,490,720,490C640,490,560,490,480,490C400,490,320,490,240,490C160,490,80,490,40,490L0,490Z"></path></svg>